<svg xmlns="http://www.w3.org/2000/svg" width="138" height="70.975" viewBox="0 0 138 70.975">
  <g id="lOGO" transform="translate(-0.049 -0.103)">
    <g id="BACKGROUND_01" data-name="BACKGROUND 01" transform="translate(0.049 0.103)">
      <path id="Path_5522" data-name="Path 5522" d="M48.658,36.976v5.25h1.268c.134,0,.254.089.254.194v1.134c0,.1-.119.194-.254.194h-4.1a.194.194,0,0,1-.194-.194V42.42a.194.194,0,0,1,.194-.194h1.313v-5.25H45.824a.179.179,0,0,1-.194-.179V35.664a.194.194,0,0,1,.194-.194h4.1c.134,0,.254.089.254.194V36.8c0,.1-.119.179-.254.179Z" transform="translate(22.352 17.28)" fill="#fff"/>
      <path id="Path_5523" data-name="Path 5523" d="M59.613,43.882,55.5,39.333v4.3a.179.179,0,0,1-.179.194H54.184a.194.194,0,0,1-.194-.194V35.44l4.176,4.549v-4.3a.179.179,0,0,1,.179-.194h1.148a.194.194,0,0,1,.179.194Z" transform="translate(26.461 17.265)" fill="#fff"/>
      <path id="Path_5524" data-name="Path 5524" d="M68.3,35.65h0l-2,8.039h0a.179.179,0,0,1-.164.134H64.882a.179.179,0,0,1-.224-.134l-2-7.935h0a.194.194,0,0,1,.194-.194h1.163a.209.209,0,0,1,.194.134h0l1.268,5.011,1.268-5.041h0a.209.209,0,0,1,.194-.134H68.1a.194.194,0,0,1,.194.119Z" transform="translate(30.722 17.309)" fill="#fff"/>
      <path id="Path_5525" data-name="Path 5525" d="M77.033,43.623a.194.194,0,0,1-.179.194h-5.31a.194.194,0,0,1-.194-.194v-7.95a.194.194,0,0,1,.194-.194H76.66a.194.194,0,0,1,.194.194v1.134a.179.179,0,0,1-.194.179H72.871v1.894h3.594a.194.194,0,0,1,.194.194v1.134a.194.194,0,0,1-.194.194H72.871V42.3h3.923a.179.179,0,0,1,.179.194Z" transform="translate(34.993 17.285)" fill="#fff"/>
      <path id="Path_5526" data-name="Path 5526" d="M85.738,41.368a2.476,2.476,0,0,1-.388,1.238,2.64,2.64,0,0,1-2.461,1.223,2.714,2.714,0,0,1-2.476-1.312,2.983,2.983,0,0,1-.343-1.059h0a.224.224,0,0,1,.179-.194h1.208a.179.179,0,0,1,.149.134h0a1.059,1.059,0,0,0,.164.418,1.223,1.223,0,0,0,1.134.522,1.268,1.268,0,0,0,1.178-.492,1.148,1.148,0,0,0,.149-.462.776.776,0,0,0-.567-.805,2.58,2.58,0,0,0-.761-.164,3.878,3.878,0,0,1-1.327-.254,2.252,2.252,0,0,1-1.491-2.192,2.58,2.58,0,0,1,.686-1.7,2.893,2.893,0,0,1,2.178-.805,2.8,2.8,0,0,1,2.028.776,2.983,2.983,0,0,1,.805,1.79h0a.194.194,0,0,1-.179.209H84.44a.209.209,0,0,1-.164-.149h0a1.8,1.8,0,0,0-.179-.522A1.119,1.119,0,0,0,82.963,37a1.491,1.491,0,0,0-1.044.328,1.029,1.029,0,0,0-.283.641.761.761,0,0,0,.567.776,2.581,2.581,0,0,0,.761.164,3.624,3.624,0,0,1,1.327.268A2.282,2.282,0,0,1,85.738,41.368Z" transform="translate(39.279 17.273)" fill="#fff"/>
      <path id="Path_5527" data-name="Path 5527" d="M94.443,36.793a.224.224,0,0,1-.239.194H92.354v6.577a.224.224,0,0,1-.179.239H91.027c-.1,0-.179-.1-.179-.239V36.987H88.954a.194.194,0,0,1-.194-.194V35.659a.179.179,0,0,1,.194-.179H94.2c.134,0,.239.075.239.179Z" transform="translate(43.55 17.284)" fill="#fff"/>
      <path id="Path_5528" data-name="Path 5528" d="M44.914,13.552l2.058-5.668a2.237,2.237,0,1,0-4.206-1.491l-1.73,4.713A28.517,28.517,0,0,0,33.773,8.5l2-5.563a2.237,2.237,0,0,0-4.206-1.491l-2.342,6.5H28.09A28.084,28.084,0,0,0,10.983,58.266L9.208,63.143A2.237,2.237,0,1,0,13.4,64.68l1.491-3.893a28.04,28.04,0,0,0,7.234,2.67l-1.67,4.624A2.237,2.237,0,0,0,21.8,70.944a2.267,2.267,0,0,0,.761.134,2.237,2.237,0,0,0,2.1-1.491l1.954-5.5c.492,0,.984.075,1.491.075a27.846,27.846,0,0,0,17-5.712,2.237,2.237,0,1,0-2.7-3.565,23.61,23.61,0,0,1-26.026,1.626L26.136,29.66a2.237,2.237,0,0,0-4.206-1.491L15.875,44.694A15,15,0,0,1,28.09,20.979a2.237,2.237,0,0,0,0-4.474A19.464,19.464,0,0,0,14.13,49.586l-1.491,4.221A23.6,23.6,0,0,1,39.515,15.342L30.283,40.816A2.222,2.222,0,0,0,31.61,43.68a2.357,2.357,0,0,0,.776.134,2.237,2.237,0,0,0,2.1-1.491l5.578-15.407a15.034,15.034,0,0,1-11.932,24.1,2.237,2.237,0,0,0,0,4.474,19.494,19.494,0,0,0,13.6-33.334l1.491-4.176a23.446,23.446,0,0,1,7.89,13.065,2.237,2.237,0,1,0,4.37-.94A28.01,28.01,0,0,0,44.914,13.552Z" transform="translate(-0.049 -0.103)" fill="#fff"/>
      <path id="Path_5529" data-name="Path 5529" d="M67.52,26.306H59.2a.582.582,0,0,0-.567.612v3.55a.552.552,0,0,0,.567.567h4.161v4.474a8.308,8.308,0,1,1-.179-13.751.611.611,0,0,0,.671,0l2.983-2.252a.567.567,0,0,0,.089-.85v-.089h-.089a13.03,13.03,0,1,0-3.475,22.283,13.766,13.766,0,0,0,3.192-1.79,18.18,18.18,0,0,0,1.372-1.223h0a.507.507,0,0,0,.179-.418V26.977a.492.492,0,0,0-.209-.433.477.477,0,0,0-.373-.239Z" transform="translate(22.357 7.561)" fill="#fff"/>
      <path id="Path_5530" data-name="Path 5530" d="M70.451,15.675h-6.5a.612.612,0,0,0-.6.582V41a.656.656,0,0,0,.6.731h6.5a12.857,12.857,0,0,0,8.322-2.983A13.065,13.065,0,0,0,70.451,15.63Zm5.28,19.389a7.964,7.964,0,0,1-5.28,2H68.079V20.418h2.371a8.293,8.293,0,0,1,5.28,14.691Z" transform="translate(31.06 7.529)" fill="#fff"/>
      <path id="Path_5531" data-name="Path 5531" d="M97.024,35.66a.626.626,0,0,0-.79-.149,8.337,8.337,0,1,1-.462-14.124.6.6,0,0,0,.671,0l2.849-2.4a.611.611,0,0,0,0-.88H99.2a13.1,13.1,0,1,0-2.207,22.626,13.781,13.781,0,0,0,2.267-1.312h0a.582.582,0,0,0,0-.85Z" transform="translate(38.522 7.559)" fill="#fff"/>
    </g>
  </g>
</svg>
