<svg xmlns="http://www.w3.org/2000/svg" xmlns:xlink="http://www.w3.org/1999/xlink" width="106" height="81" viewBox="0 0 106 81"><defs><path id="kuaha" d="M1035.031 1388.529l-1.442-2.338c-.243-.398-.437-.71-.58-.936-.144-.227-.28-.432-.407-.614l-.406-.58a219.4 219.4 0 0 0-.58-.82h-1.36v4.508h.63v.78h-2.95v-.78h.812v-9.896h-.812v-.78h4.21c1.072 0 1.915.258 2.529.772.613.513.92 1.246.92 2.196 0 .707-.196 1.329-.589 1.865-.392.536-1.003.91-1.832 1.119.067.1.18.254.34.464.16.21.323.437.489.68.133.188.265.373.398.555.132.182.254.357.365.522l.48.696c.122.178.243.363.365.556.121.193.26.423.414.688.155.265.37.63.647 1.094v.249zm-4.774-10.112v3.497h1.392c.74 0 1.326-.16 1.757-.48.431-.321.647-.78.647-1.376 0-.564-.18-.978-.539-1.244-.36-.265-.903-.397-1.633-.397z"/><path id="kuahb" d="M1044.479 1385.967a4.363 4.363 0 0 1-.82 1.467c-.355.41-.775.73-1.261.962a3.686 3.686 0 0 1-1.608.348 3.682 3.682 0 0 1-1.608-.348 3.827 3.827 0 0 1-1.26-.962 4.461 4.461 0 0 1-.829-1.467 5.56 5.56 0 0 1-.298-1.848c0-.674.1-1.293.298-1.857.2-.563.475-1.05.829-1.459a3.735 3.735 0 0 1 1.26-.953 3.76 3.76 0 0 1 1.608-.34c.586 0 1.121.114 1.608.34.486.227.906.545 1.26.953.353.41.627.896.82 1.46.194.563.29 1.182.29 1.856 0 .663-.096 1.28-.29 1.848zm-1.385-3.182a3.4 3.4 0 0 0-.505-1.045 2.345 2.345 0 0 0-.788-.688 2.11 2.11 0 0 0-1.011-.249c-.364 0-.702.083-1.011.25-.31.165-.575.394-.796.687a3.283 3.283 0 0 0-.514 1.045 4.6 4.6 0 0 0-.182 1.334c0 .487.06.931.182 1.334.122.404.293.752.514 1.045.22.293.486.522.796.688.31.165.647.248 1.01.248a2.11 2.11 0 0 0 1.012-.248 2.34 2.34 0 0 0 .788-.688c.215-.293.384-.641.505-1.045.121-.403.183-.847.183-1.334 0-.486-.062-.931-.183-1.334z"/><path id="kuahc" d="M1052.217 1380.356l-3.415 10.162a3.45 3.45 0 0 1-.513 1.028c-.221.298-.503.447-.846.447h-.05l-1.74-.1.066-1.276.597.067.63.033h.017c.143 0 .268-.072.373-.216.104-.143.196-.337.273-.58l.547-1.724-2.719-7.841h-.563v-.746h2.437v.746h-.415l1.956 5.935 1.907-5.935h-.398v-.746h2.404v.746h-.548"/><path id="kuahd" d="M1058.02 1388.529v-.862c-.376.364-.774.63-1.194.795-.42.166-.829.249-1.227.249-.42 0-.798-.072-1.135-.216a2.529 2.529 0 0 1-.854-.58 2.559 2.559 0 0 1-.539-.862 2.938 2.938 0 0 1-.19-1.06c0-.896.328-1.606.986-2.13.657-.526 1.589-.788 2.793-.788.166 0 .36.016.58.05.221.033.448.093.68.182v-.879c0-.597-.147-1.028-.44-1.293-.292-.265-.71-.398-1.25-.398-.233 0-.421.003-.565.008a2.936 2.936 0 0 0-.43.05c-.144.028-.313.07-.506.125-.193.055-.456.138-.788.248l-.331-1.044c.331-.155.597-.274.796-.357.199-.082.384-.143.555-.182.171-.039.356-.06.555-.066.2-.006.47-.008.813-.008.983 0 1.73.243 2.238.729s.762 1.216.762 2.188v4.741l.033.597 1.028.017v.746zm-.58-4.128a2.03 2.03 0 0 0-.647-.1c-.807.011-1.418.169-1.832.473a1.453 1.453 0 0 0-.621 1.235c0 .42.118.77.356 1.053.237.281.594.422 1.069.422.564 0 1.033-.19 1.409-.572.376-.381.624-.87.746-1.467v-.812a1.776 1.776 0 0 0-.48-.232z"/><path id="kuahe" d="M1061.236 1388.529v-.763h.663v-10.41c-.055 0-.122.002-.199.008a4.867 4.867 0 0 1-.331.008v-.779h1.806v11.173h.647v.763h-2.586"/><path id="kuahf" d="M1034.467 1401.528a3.122 3.122 0 0 1-.77 1.036 3.654 3.654 0 0 1-1.16.68 4.146 4.146 0 0 1-1.451.248 4.73 4.73 0 0 1-1.343-.19 3.907 3.907 0 0 1-1.144-.54v.564h-.763v-2.868h.83v.431c.132.31.414.592.845.846.43.254.94.381 1.525.381.32 0 .616-.047.887-.14.27-.094.503-.23.696-.407.193-.176.345-.381.456-.613.11-.232.166-.492.166-.78 0-.242-.04-.458-.117-.646a1.536 1.536 0 0 0-.38-.53 3.054 3.054 0 0 0-.705-.473c-.293-.15-.65-.3-1.07-.456a9.018 9.018 0 0 1-1.276-.563 4.275 4.275 0 0 1-.995-.73 3.118 3.118 0 0 1-.646-.928 2.825 2.825 0 0 1-.232-1.177c0-.431.088-.832.265-1.202.177-.37.417-.688.721-.953a3.43 3.43 0 0 1 1.094-.63 4.021 4.021 0 0 1 1.385-.232c.828 0 1.569.199 2.22.597v-.514h.763v2.47h-.862v-.315c-.154-.232-.411-.434-.77-.605-.36-.171-.81-.257-1.351-.257-.597 0-1.078.149-1.443.447-.365.299-.547.691-.547 1.177 0 .42.191.79.572 1.111.381.32.997.641 1.849.962a9.286 9.286 0 0 1 1.392.63c.387.22.702.47.945.745.243.277.42.589.53.937.11.348.166.744.166 1.185 0 .464-.094.898-.282 1.302"/><path id="kuahg" d="M1068.938 1416.348c.812.725 1.586 1.088 2.322 1.088 1.516 0 2.274-1.155 2.274-3.466 0-2.04-.672-3.059-2.018-3.059-.88 0-1.74.478-2.578 1.433zm-1.577 5.236v-11.858h1.577v1.634c.646-1.217 1.615-1.826 2.907-1.826 1.046 0 1.87.382 2.47 1.145.6.763.9 1.807.9 3.13 0 1.442-.34 2.604-1.02 3.487-.681.884-1.576 1.325-2.687 1.325-1.03 0-1.886-.395-2.57-1.185v4.148zm-4.74-3.163v-1.633c-.838 1.222-1.854 1.833-3.05 1.833-.758 0-1.361-.238-1.81-.716-.448-.478-.672-1.122-.672-1.934v-6.245h1.577v5.733c0 .651.095 1.114.285 1.389.189.275.505.412.948.412.961 0 1.868-.632 2.722-1.897v-5.637h1.578v8.695zm-12.081-.985c1.67 0 2.506-1.126 2.506-3.378 0-2.226-.825-3.339-2.474-3.339-1.644 0-2.466 1.118-2.466 3.355 0 2.242.811 3.362 2.434 3.362zm-.024 1.185c-1.244 0-2.237-.412-2.978-1.237-.742-.824-1.113-1.928-1.113-3.31 0-1.399.372-2.505 1.116-3.319.745-.814 1.755-1.22 3.03-1.22 1.277 0 2.287.406 3.031 1.22.745.814 1.117 1.915 1.117 3.303 0 1.42-.373 2.535-1.12 3.346-.748.812-1.775 1.217-3.083 1.217zm-10.112-.2v-8.695h1.577v1.634c.625-1.217 1.532-1.826 2.722-1.826.16 0 .329.014.505.04v1.473a2.319 2.319 0 0 0-.72-.136c-.999 0-1.834.593-2.507 1.778v5.732zm-2.994-.32c-1.436.41-2.688.616-3.756.616-1.884 0-3.329-.536-4.335-1.609-1.006-1.073-1.51-2.61-1.51-4.611 0-1.965.51-3.493 1.53-4.584 1.02-1.092 2.45-1.637 4.291-1.637 1.207 0 2.461.178 3.763.536v1.553c-1.633-.555-2.885-.832-3.755-.832-1.28 0-2.275.435-2.982 1.305-.707.87-1.06 2.095-1.06 3.675 0 1.563.378 2.78 1.136 3.646.758.868 1.82 1.301 3.187 1.301.56 0 1.166-.098 1.817-.296v-3.859h1.673z"/><path id="kuahh" d="M1039.596 1403.26c-.11.044-.28.094-.506.15a2.84 2.84 0 0 1-.671.082c-.663 0-1.133-.177-1.41-.53-.276-.354-.414-.918-.414-1.691v-5.57h-1.392v-1.293h1.392v-1.708l1.36-.796v2.504h1.69v1.293h-1.69v5.636c0 .575.237.862.712.862.177 0 .357-.03.54-.091.182-.06.344-.119.489-.174l.016 1.16-.116.166"/><path id="kuahi" d="M1045.763 1403.31v-.862c-.376.364-.774.63-1.194.795-.42.166-.828.249-1.226.249a2.87 2.87 0 0 1-1.136-.215 2.53 2.53 0 0 1-.854-.58 2.556 2.556 0 0 1-.538-.863 2.934 2.934 0 0 1-.191-1.06c0-.896.329-1.606.986-2.13.658-.526 1.589-.788 2.793-.788.166 0 .36.016.58.05.222.033.448.093.68.182v-.879c0-.597-.147-1.028-.439-1.293-.293-.265-.71-.398-1.252-.398-.231 0-.42.003-.563.009a2.938 2.938 0 0 0-.431.05c-.144.027-.313.069-.506.124a20.98 20.98 0 0 0-.787.248l-.332-1.044c.332-.155.597-.274.796-.356.2-.083.384-.144.555-.183a2.9 2.9 0 0 1 .556-.066c.199-.005.47-.008.812-.008.983 0 1.73.243 2.238.73.508.485.762 1.215.762 2.187v4.741l.033.597 1.028.017v.746zm-.58-4.128c-.2-.066-.415-.1-.647-.1-.807.012-1.417.169-1.832.473a1.452 1.452 0 0 0-.621 1.235c0 .42.118.77.356 1.053.238.281.594.422 1.07.422.563 0 1.032-.19 1.408-.572.376-.38.625-.87.747-1.467v-.812a1.783 1.783 0 0 0-.481-.232z"/><path id="kuahj" d="M1054.383 1403.31v-.746h.663v-5.106c0-.575-.127-1.033-.382-1.376a1.2 1.2 0 0 0-1.01-.514c-.564 0-1.048.207-1.451.622-.404.414-.682.98-.837 1.699v4.675h.696v.746h-2.67v-.746h.565v-7.327h-.216a5.15 5.15 0 0 1-.348-.017v-.73h1.923v.929c.652-.752 1.492-1.127 2.52-1.127.828 0 1.472.276 1.931.829.458.552.688 1.326.688 2.32v5.123h.68v.746h-2.752"/><path id="kuahk" d="M1064.097 1403.31v-.978c-.365.42-.752.715-1.16.886a3.357 3.357 0 0 1-1.31.257c-.575 0-1.094-.11-1.558-.331a3.29 3.29 0 0 1-1.177-.937c-.32-.403-.57-.89-.746-1.458a6.324 6.324 0 0 1-.265-1.882c0-.707.085-1.345.257-1.915.171-.569.414-1.058.729-1.467a3.227 3.227 0 0 1 1.152-.945 3.431 3.431 0 0 1 1.525-.331c.442 0 .881.083 1.318.248.436.166.848.487 1.235.962v-3.3h-.232c-.089 0-.216-.004-.381-.016v-.729h2.022v11.173h.896v.763zm-.182-5.844a3.38 3.38 0 0 0-.506-1.06 2.312 2.312 0 0 0-.77-.68c-.3-.16-.63-.24-.995-.24-.354 0-.672.082-.954.248a2.222 2.222 0 0 0-.72.696 3.44 3.44 0 0 0-.457 1.07c-.105.414-.157.87-.157 1.367s.055.95.166 1.36c.11.408.267.76.472 1.052.204.293.453.52.746.68.293.16.616.24.97.24.353 0 .677-.085.97-.257.292-.171.544-.406.754-.705.21-.298.373-.651.489-1.06a4.9 4.9 0 0 0 .174-1.343c0-.497-.061-.953-.182-1.368z"/><path id="kuahl" d="M1072.13 1403.301v-.862c-.376.365-.774.63-1.194.796a3.33 3.33 0 0 1-1.226.249c-.42 0-.799-.072-1.136-.216a2.534 2.534 0 0 1-.854-.58 2.557 2.557 0 0 1-.538-.862 2.933 2.933 0 0 1-.191-1.061c0-.895.329-1.605.987-2.13.657-.525 1.588-.787 2.793-.787.165 0 .359.016.58.05.221.032.447.093.68.182v-.88c0-.596-.147-1.027-.44-1.292-.293-.265-.71-.398-1.251-.398-.232 0-.42.003-.564.008a2.947 2.947 0 0 0-.431.05c-.144.028-.312.07-.505.124-.194.056-.457.139-.788.25l-.332-1.045c.332-.155.597-.274.796-.357a2.893 2.893 0 0 1 1.11-.249c.2-.005.47-.008.813-.008.984 0 1.73.244 2.238.73s.762 1.216.762 2.188v4.741l.034.597 1.027.016v.746zm-.58-4.127a2.03 2.03 0 0 0-.647-.1c-.806.011-1.417.169-1.831.473a1.452 1.452 0 0 0-.622 1.235c0 .42.118.77.356 1.052.238.282.594.423 1.07.423.563 0 1.033-.19 1.409-.572.375-.381.624-.87.746-1.467v-.812a1.778 1.778 0 0 0-.481-.232z"/><path id="kuahm" d="M1079.938 1395.726h-.149c-.652 0-1.139.29-1.46.87-.32.58-.48 1.34-.48 2.28v3.68h.647v.745h-2.934v-.746h.912v-7.327h-.233a6.65 6.65 0 0 1-.38-.016v-.73h1.889v1.144c.276-.475.608-.815.994-1.02a2.62 2.62 0 0 1 1.244-.306l.795.083v1.409l-.845-.066"/><path id="kuahn" d="M1087.696 1403.301v-.978c-.365.42-.752.716-1.16.887a3.353 3.353 0 0 1-1.31.257c-.575 0-1.094-.11-1.559-.331a3.289 3.289 0 0 1-1.176-.937c-.321-.403-.57-.89-.747-1.459a6.316 6.316 0 0 1-.265-1.881c0-.708.086-1.346.257-1.915.171-.57.415-1.058.73-1.467a3.229 3.229 0 0 1 1.152-.945 3.43 3.43 0 0 1 1.524-.331c.443 0 .882.082 1.319.248.436.166.848.487 1.235.962v-3.3h-.232c-.09 0-.216-.005-.382-.016v-.73h2.023v11.174h.895v.762zm-.183-5.843a3.378 3.378 0 0 0-.505-1.061 2.313 2.313 0 0 0-.771-.68c-.299-.16-.63-.24-.995-.24-.354 0-.671.083-.953.249a2.22 2.22 0 0 0-.721.696c-.199.298-.351.655-.456 1.069-.105.415-.158.87-.158 1.368 0 .497.055.95.166 1.359.11.409.268.76.472 1.053.205.293.454.52.747.68.292.16.616.24.97.24.353 0 .676-.086.97-.257.292-.171.543-.406.754-.705a3.48 3.48 0 0 0 .488-1.06 4.9 4.9 0 0 0 .175-1.343c0-.498-.061-.954-.183-1.368z"/><path id="kuaho" d="M983.943 1345.845c.075.606.645 1.076 1.337 1.076.101 0 .2-.01.295-.03l.09.25a.608.608 0 0 0-.343.534c0 .34.307.617.686.617a.6.6 0 0 0 .067-.003c.72 2.071 1.342 4.175 1.605 6.334.332 2.727-.025 2.113 2.685 2.113h13.66c2.71 0 2.353.614 2.685-2.113.263-2.159.884-4.263 1.605-6.334a.609.609 0 0 0 .067.003c.38 0 .686-.276.686-.617a.609.609 0 0 0-.344-.535l.09-.249c.096.02.195.03.295.03.743 0 1.346-.541 1.346-1.21 0-.668-.603-1.21-1.346-1.21-.742 0-1.344.542-1.344 1.21 0 .524.371.969.889 1.137l-.126.224a.757.757 0 0 0-.146-.014c-.378 0-.686.276-.686.617 0 .184.09.348.232.461-1.042 1.831-2.483 4.17-4.04 5.016l.034-.284c.186-1.527.626-3.014 1.135-4.479a.466.466 0 0 0 .048.002c.268 0 .485-.195.485-.436a.43.43 0 0 0-.243-.378l.064-.176c.067.013.136.021.208.021.525 0 .951-.383.951-.855 0-.473-.426-.856-.951-.856-.525 0-.95.383-.95.856 0 .37.261.685.628.804-.03.05-.059.103-.09.158a.538.538 0 0 0-.102-.01c-.268 0-.485.195-.485.436 0 .13.063.247.164.327-1.103 1.936-2.837 4.677-4.528 3.484-1.042-1.394-1.715-3.226-2.207-5.015.259-.21.423-.514.423-.853 0-.52-.382-.958-.907-1.1-.01-.042-.02-.084-.028-.125.803-.143 1.408-.78 1.408-1.545 0-.87-.784-1.575-1.75-1.575s-1.75.705-1.75 1.575c0 .765.605 1.402 1.408 1.545-.01.041-.02.083-.028.124-.526.143-.908.582-.908 1.1 0 .34.165.644.423.854-.491 1.789-1.164 3.621-2.207 5.015-1.69 1.193-3.425-1.548-4.527-3.485.1-.08.164-.196.164-.326 0-.241-.217-.436-.485-.436a.532.532 0 0 0-.102.01l-.09-.158c.366-.119.629-.434.629-.804 0-.473-.426-.856-.951-.856-.526 0-.951.383-.951.855 0 .473.425.856.95.856.072 0 .142-.008.21-.02l.063.175a.43.43 0 0 0-.244.378c0 .241.218.436.486.436.016 0 .031 0 .048-.002.51 1.465.949 2.952 1.135 4.48l.033.283c-1.556-.847-2.997-3.185-4.04-5.016a.592.592 0 0 0 .233-.461c0-.341-.308-.617-.686-.617a.757.757 0 0 0-.146.014l-.126-.224c.518-.168.889-.613.889-1.137 0-.668-.602-1.21-1.345-1.21-.692 0-1.262.47-1.337 1.076z"/><path id="kuahp" d="M987.971 1359.49h18.447v-2.28h-18.447z"/><path id="kuahq" d="M1015.776 1386.968c.074 3.28-1.438 5.227-3.59 5.227-1.044 0-3.594-.894-3.594-5.945 0-1.297.016-2.363.028-3.254.029-1.856-.01-3.199-.188-4.136.805.006 1.558.051 2.227.214 4.734 1.15 5.069 5.76 5.117 7.894zm-23.903-12.392l.01-8.738c.024-.192.077-.384.19-.546.192-.279.586-.523 1.391-.52h.02l6.577-.003c2.637 0 4.796.003 4.796 4.81 0 4.461-2.147 4.997-3.788 4.997zm15.24 47.253c3.178-.071 6.098-.628 8.755-2.481 6.141-4.284 6.66-9.083 6.66-11.904 0-4.836-3.577-10.518-13.647-11.857-3.434-.457-7.909-2.416-8.244-7.881-.337-5.5 2.11-8.048 4.164-8.426.049 2.266.027 5.356.061 6.738.105 4.24 3.42 7.094 7.538 7.127 3.037.025 7.323-1.947 6.98-7.47-.27-4.334-4.112-6.402-5.748-7.1-1.012-.433-2.447-1-5.631-.93-.148-.276-.787-1.837-3.063-2.375 2.015-.808 3.554-2.473 3.554-5.565 0-1.58-.493-6.325-7.449-6.325h-14.859v1.392h.875c.286.006 1.338-.03 1.338 1.234v22.282c-.019.224-.149.669-.888.669h-.504v1.391h6.314v-1.391h-.59c-.69 0-.832-.48-.856-.766v-12.223h9.387c1.5 0 2.25.137 3.01.951.17.183.447.633.436 1.147-.596.133-1.258.384-1.86.641-4.143 1.77-6.244 5.499-6.028 9.015.057.931 0 6.745 11.108 9.009 11.126 2.267 10.029 10.425 10.006 12.414-.042 3.636-2.297 11.4-11.631 11.4-.41 0-.82-.011-1.23-.03l-.93-.062h-.003a18.81 18.81 0 0 1-3.116-.535c-3.58-1.011-5.871-3.778-7.445-6.297-1.584-2.534-1.64-6.154-1.704-8.641v-10.784s-.095-1.025.912-1.025h.534v-1.392h-6.314v1.392h.418l.011.04v-.04h.132c.262.016.83.144.83.953l.003 3.251.004 8.104s.028 1.929.503 4.248c.476 2.32 3.493 8.038 9.038 10.447l.041.017c2.376 1.108 5.03 1.573 7.7 1.638h1.427z"/><path id="kuahr" d="M1074.021 1371.103l-.02-.003-1.3 3.596h-.655l-1.294-3.583-.02.003.093 2.132v.764l.52.1v.584h-2.011v-.584l.517-.1v-3.486l-.517-.1v-.587h1.788l1.238 3.58h.02l1.248-3.58h1.794v.587l-.52.1v3.486l.52.1v.584h-2.011v-.584l.517-.1v-.764zm-5.004-1.264v1.294h-.747l-.04-.544h-.894v3.423l.52.1v.584h-2.015v-.584l.52-.1v-3.423h-.89l-.04.544h-.744v-1.294z"/></defs><g><g transform="translate(-984 -1341)"><g><use fill="#1e1767" xlink:href="#kuaha"/></g><g><use fill="#1e1767" xlink:href="#kuahb"/></g><g><use fill="#1e1767" xlink:href="#kuahc"/></g><g><use fill="#1e1767" xlink:href="#kuahd"/></g><g><use fill="#1e1767" xlink:href="#kuahe"/></g><g><use fill="#1e1767" xlink:href="#kuahf"/></g><g><use fill="#1e1767" xlink:href="#kuahg"/></g><g><use fill="#1e1767" xlink:href="#kuahh"/></g><g><use fill="#1e1767" xlink:href="#kuahi"/></g><g><use fill="#1e1767" xlink:href="#kuahj"/></g><g><use fill="#1e1767" xlink:href="#kuahk"/></g><g><use fill="#1e1767" xlink:href="#kuahl"/></g><g><use fill="#1e1767" xlink:href="#kuahm"/></g><g><use fill="#1e1767" xlink:href="#kuahn"/></g><g><g><use fill="#1e1767" xlink:href="#kuaho"/></g></g><g><use fill="#1e1767" xlink:href="#kuahp"/></g><g><g><use fill="#1e1767" xlink:href="#kuahq"/></g></g><g><use fill="#1e1767" xlink:href="#kuahr"/></g></g></g></svg>