<svg xmlns="http://www.w3.org/2000/svg" xmlns:xlink="http://www.w3.org/1999/xlink" width="121" height="73" viewBox="0 0 121 73"><defs><path id="6yl8a" d="M1394.568 753.267v-71.726h119.544v71.726z"/><path id="6yl8b" d="M1394.568 717.404V681.54h119.544v35.863z"/><path id="6yl8c" d="M1487.872 708.177c-1.348.018-2.306.902-2.215 1.57.302 2.212 4.802 1.445 5.32-.049-1.078-1.143-2.183-1.534-3.105-1.52zm-59.21-16.69c-.327-.001-.594.024-.666.064.236 1.065.646 1.49 1.355 1.526.709.035 1.43-.558 1.724-1.05.01-.188-.761-.277-1.396-.431a4.69 4.69 0 0 0-1.017-.108zm44.15-5.684c-1.525 2.548-2.615 7.284 1.386 7.584 1.282.02 15.348-5.9 15.348-5.9-4.891 3.57-10.519 8.552-3.983 10.707-5.996 1.867-10.968 7.93-6.612 12.814-3.112-.886-7.195 1.122-7.93 3.385 3.539-.026 6.739-.225 10.108.936 0 0 9.483 1.52 10.123-2.606-3.228 1.577-8.823.934-8.993-3.592.044-3.88 5.873-6.062 10.838-3.155.514-1.052 1.012-2.107 1.526-3.16-1.816.225-3.459.534-5.338.095 3.821-3.626 7.416-7.195 10.672-11.216-.717 5.015-.003 12.279 1.242 14.655-1.51-.543-3.193-1.819-4.024-3.493l-1.764 5.487c3.732 7.58-5.977 13.544-14.057 13.957 4.932 2.676 11.388 6.006 11.388 7.76-1.962.737-3.134-1.354-4.7-2.03 1.68 4.366.643 7.603-.224 11.914-.85 1.008.003 1.676.342 2.516.776.3 1.55.604 2.327.904l.378.338s1.637.075 2.088 2.367c-1.091-1.325-2.579-.904-2.579-.904-.188.125-.375.253-.563.378l-1.314-.788c-1.452-.965-2.93-.916-4.51-.23-.801.483-1.632.459-2.408.077-.889-.966-2.815-.112-2.853-.112-.038 0-2.066 1.354-2.066 1.354s-.49-.112-.527-.112c-.037 0-1.317-.033-3.006 1.049.445-2.298 2.106-2.255 2.106-2.255-.154-.48.197-.399.297-.599.547-.606 1.705-.501 2.557-.752-.678-.227-1.959-.55-2.863-.468-1.081.1-.861.771-2.02.243.024-.075.046-.15.071-.225-1.068-.093-1.905-.135-2.516.864-.061-1.678 1.35-1.985 2.255-2.367.41-.633 1.301-.529 2.142-.45.26-.067 1.14.206 2.044.549.493.212.95.412 1.337.59-.353-.189-.53-.284-1.337-.59-1.485-.638-3.152-1.308-3.21-1.26-.253-.381.077-.606.077-.644 0-.038-1.388-.877-2.367.076.19-1.994 2.552-1.467 2.552-1.467.134-.646.781-.554 1.094-.26.613.6 1.227 1.198 1.84 1.8.577.363 1.152.73 1.729 1.093 1.603.708 3.309.446 4.735-1.845-.487-1.183-.265-1.704.823-2.404-.28-.789-.176-1.604.153-2.367-.482-.712-.772-2.698-.301-3.155-1.08-.381-1.505-1.467-1.58-1.467-.99.203-1.848-.12-2.255-.527-1.532.676-2.832.311-3.83-.563-1.759.6-3.365.185-4.209-.562-1.346.33-3.466-.636-3.834-1.729-.775 0-1.565-.864-2.404-.787-.69 1.134-.872 1.022-1.917 1.953-1.068 1.112-.69 2.987.148 3.87l3.948 1.504c3.006.173 3.724 1.897 3.681 3.57-1.135-.341-1.177-.532-1.728-.568l-2.327-.823c-2.426 3.913-5.872 6.655-10.789 7.926.94.442 1.883.276 2.823.414.338.2.674.402 1.012.603 1.462.307 2.492.768 2.48 2.142-.978-1.09-1.93-1.062-2.705-.526-1.558.653-2.454-.778-3.682-1.166-1.04-.75-2.057-.434-2.97.036-1.026-.672-2.202-.325-3.38-.185-1.468.146-3.14.519-3.871 1.35-.483.382-.678-.185-.716-.148-1.69-.547-2.44.936-2.44.936-.4-1.716.466-2.084 1.387-2.327l-1.877-1.089c-.039-.214-.179-.25.19-.337-.74-.474-1.481-.112-2.296.634.075-1.565 2.01-2.543 2.822-2.025.585-.433 1.65-.512 2.44.148.886.671 2.231.76 3.118.49-.383-1.058-1.603-1.685-2.29-1.727-.97-.236-2.091-.575-1.765-1.166-.598-.852-1.454-.586-2.408.112.342-1.937 2.385-1.74 2.93-1.314.197-.596.828-.736 1.355-.112.832.222.95.8 1.427 1.201.923.945 2.355 1.433 3.533 1.616 1.1-.632 2.403-.73 3.682-.752.245-1.073.95-1.307 1.881-1.314-.032-.957.442-1.381 1.35-1.805 0 0-1.437-.126-1.539-1.053-2.414-.012-4.005-.342-4.208-1.917-2.198-.692-3.582-2.347-2.705-4.132-1.093.33-1.806.356-2.746 0-1.525 1.338-3.885 2.955-5.334 2.057-.686.711-2.294 1.548-2.331 1.548-.19 1.703-1.503 3.799-1.503 3.799-.653-1.64-1.89-3.435-1.805-5.05-2.198 2.857-3.48 3.706-5.221 5.572-1.41 1.45-2.133 3.155-2.629 5.037 1.052.602 2.403.5 3.605.751l.379.378c1.282.025 2.226.734 2.214 2.066-1.144-1.182-2.291-.45-2.291-.45-.939.78-2.132.428-3.272 0-.989-1.055-2.426-1.658-3.641-.752-1.466 1.194-2.128-.63-4.398.64-1.616 1.47-3.863 1.604-4.474.71 0 0-1.12-.442-2.705 1.243.453-2.74 2.143-2.48 2.143-2.48l-.077-.864-.639-.225c-1.14-.503-2.554-.38-3.191.148.436-1.796 2.104-1.806 3.344-1.616l.675-.751c-.515-.2-.4-.55-.26-.9-.69-.692-1.206-.83-2.071-.113.273-1.746 1.93-1.632 3.083-.864.625-.391 1.981.35 2.858.864 2.67.896 4.331 1.01 7.026-2.444.023-1.643.119-2.279 1.575-3.268-.555-1.002-.252-2.005 1.13-2.48-.49-.463-.11-1.148.23-1.863-1.98-.089-4.2.117-5.753.657-.512 1.567-1.179 3.21-2.295 4.249.025-4.08-2.325-6.971-5.185-10.033-3.281-2.149-4.732-6.48-4.996-7.894-.604 1.584-1.017 1.844-1.017 1.881-.73.792-.234 2.591-1.742 2.629-1.408 1.722-3.106.715-3.106.715 1.607-.223 1.884-.874 2.183-1.953-1.006-.237-.129-1.078.374-1.39.312-.061 1.102-2.06 1.615-1.995l.64-5.896c-1.293-.537-2.157-1.38-2.066-2.822-.478-.614-.803-1.503-.149-1.84-.287-.74-.626-1.555-1.692-1.842 2.472-.429 2.784 1.078 3.42 1.202.727.435 1.225 2.934 2.102 4.249-.666-2.156-.328-3.608.338-5.487.002-1.015-.423-2.004-1.427-2.592 2.112-.05 2.968 2.139 3.043 2.214 1.332 1.735-.466 2.943.112 3.723.414-.313.628-1.03 1.243-.941.514-.563.903-1.173.864-2.44 1.294.739.978 1.825.562 2.89.077 1.594-.147 2.03-1.201 2.592-1.057.63-1.256 1.15-1.13 1.918 1.282 1.37 1.544 5.6 1.544 5.6 1.29.388 1.759 1.505 1.688 2.407 1.22-.109 2.333.832 2.52 1.688.721-.677 1.734-.044 2.44.68.248-.378.779-.556 1.354-.343-.001-.663.372-1.077.977-1.615-1.458-1.132-1.86-3.925-.225-5.446-.327-2.05.298-3.982 1.355-4.209-.342-2.246 1-2.96 1.539-3.497-.352-1.031.786-2.918 1.427-2.93-.641-1.069.547-3.017 1.503-3.155 0-.038-.639-1.504-.639-1.504s-3.059.458-3.605 3.268c-.377-.584-.752-1.463-.752-1.463s-1.222 3.266-1.26 3.191c-1.056-.64-.58-2.214-.58-2.214-.767-.839-.628-1.906-.941-2.858-2.869-.125-5.738-.248-8.606-.374 0 0 .937 1.729.975 1.765-1.02.015-5.987-4.235-6.948-7.854 2.548 2 5.264 2.532 8.151 3.119-.764.375-1.527.754-2.29 1.13 7.92.678 16.119-.791 16.081-.829-.886-1.847-3.794-1.84-3.794-1.84v1.237l-.788-.563c-.012.314-.028.628-.04.941l-.599-.414c-.062.263-.127.525-.19.788l-.602-.414c-.088.238-.174.477-.261.715l-.675-.526s-.566-.002-.603-.077c-.368-1.88-2.143-1.913-2.143-1.913-2.082-.268-3.705.174-5.559.261 2.723-3.415 6.462-3.096 10.033-3.456.26-1.519 1.594-1.961 3.155-2.179 0 0 7.326.374 7.364.374.942-1.245 3.87-1.765 3.87-1.765 1.028-.513 2.17-.29 3.084-1.539-.239 1.706-.253 2.052-.379 3.079l.941.112c-.852.551-1.983 1.33-2.835 1.882-.949 1.436-.765 1.457-.356 2.214l.864 1.503c1.461.45 2.524 1.071 2.854 2.03-1.58-.19-2.73.104-2.705.788.03.504 1.23.73 1.72 1.03.907.851 1.207 1.602 1.25 2.656-1.164-.062-2.688-1.803-3.497-.189-.386.79.042 1.857 1.053 2.215 1.855.508 2.027 3.047 1.99 3.047-.038 0-4.074-2.696-3.871-.18-.067 1.111.449 1.36.864 1.683 1.21.447 2.244.97 2.107 2.255-1.74-.627-2.567-.135-2.782.864.226.651.45 1.302.675 1.954 2.355-.477 4.712-.956 7.067-1.432 1.029-.938 1.493-2.494 1.39-4.168.123-2.492-.774-4.705 2.404-7.48 6.62-5.517 13.355-9.846 20.88-14.007zm-56.878 14.948h-.002.002zm56.891-14.957l-.013.01.004-.01z"/><path id="6yl8d" d="M1485.658 709.747c-.153-1.126 2.665-2.862 5.32-.047-.518 1.494-5.018 2.258-5.32.047zm12.266-11.34s-.308 3.733-.759 4.492m-.984-4.287c0 .02-1.559 4.205-1.559 4.205m-1.52 3.164c.311.243 1.517.887 2.314 2.376m-4.395 1.392s1.122.98.135 3.342m-16.838 3.63c2.215-.266 5.394 4.656 7.014 5.62m8.994 22.894c-.493-.882.43-1.559.43-1.559m-15.504.82s1.107.308.985 1.231m-3.22-4.45s.8.84.266 1.538m1.005-4.778s1.067.512-.205 1.394m-13.433 5.866c-.677-.882.246-1.662.246-1.662m-15.73.226s1.681.082 1.086 1.354m-2.338-4.184s.562 1.041-.525 1.328m2.638-4.794s.554 1.107-.513 1.25m-.697 4.8s1.62-1.395 2.379-.656c.759.738 3.979-.636 3.979-.636m4.86-2.83s1.964 2.107 3.4-.443c-.613.107-.796-.334-1.492-.89l4.97-1.105c-1.999 1.343-2.918 1.898-3.478 1.995l.005-.009m-.226-2.666zm.055.006c.395.006 2.75-.263 3.357-2.75 3.917.368.73 2.95.32 3.38-.151-.247-3.225-.582-3.677-.63zm-42.5 7.979s1.315.192.546 1.25m-1.122-3.75s.961.609-.128 1.41m1.634-4.07s.449 1.153-1.057.993m.095 3.301s1.827-1.506 2.788-.577c.93.32 1.442.256 1.442.256m12.116 1.86c-.45-.546.064-1.635.096-1.635m-9.903-2.789c-1.539.417-2.717.91-3.926.874-1.05 0-1.299-.52-2.452-.457m-6.378-35.415c-.705 1.09-1.443.737-1.443.737m-.447 13.845s1.185.353.993 1.25m5.066-17.466c-1.474 1.09-1.474.385-1.474.385m1.827 7.05c-1.346-.704-.224-3.717-.224-3.717m2.724-.288c-.802.705-1.378-.545-1.378-.545m12.733 23.116c-.925-.32-3.258-2.269-2.835-4.754h.005l-.004-.003.004-.028c-1.57-2.244-1.346-3.365-1.346-3.365m1.342 3.393l-.001.003a15.786 15.786 0 0 1-2.554-.392 1.033 1.033 0 0 1-.005.008v-.009l.005.001c.233-.428.21-1.092.127-1.654zm-9.363-7.878l6.734 5.666-.033-.878s.148.47.234 1.047l-.201-.169.07 1.822c-2.95-.712-4.964-2.185-6.12-3.648.61-.36 1.096-1.394 1.096-1.394l-1.114 1.37c-1.32-1.681-1.503-3.344-.666-3.816zm.666 3.817l.018.023a1.086 1.086 0 0 1-.066.036zm30.783-9.75s2.244-.031 4.487-6.12c2.21-8.333 19.742-17.627 20.095-19.358m-18.194 15.65c3.29-1.826 13.46-5.553 20.245-8.287m13.906-5.436s-31.137 14.55-31.59 15.32c5.257-1.586 27.556-5.302 28.1-4.985-1.314.317-28.373 6.527-29.642 8.022 6.753-.226 20.896 2.176 23.115 4.488-4.804-1.088-19.173-3.219-23.569-2.267 2.057.493 7.833 3.928 11.736 6.675l-1.819.325c-4.93-2.238-11.258-4.661-11.64-4.28 1.615.968 3.546 3.184 5.13 5.443l-1.92.343c-2.405-2.519-4.81-4.821-5.068-4.517.38.532.916 2.749 1.344 5.182l-1.67.298c-.72-2.081-1.372-3.825-1.487-3.94-.286.077-1.2 2.138-2.102 4.58l-1.96.35c.194-1.845.506-3.31.89-3.643-.996.38-2.781 2.266-4.296 4.252l-1.258.225c.542-1.221 1.315-2.8 2.426-4.947-3.708.226-11.386 5.054-12.727 6.787h-.006c.634-1.854 3.243-4.473 5.843-6.346 1.723-1.242 3.442-2.155 4.579-2.3m25.74 2.188l4.098-.732s-1.86 1.582-.124 4.126c-.724-.012-1.407.02-2.047.088-4.456.475-6.855 2.712-7.072 4.285-1.904-.136-3.226-.092-4.18.061a3.796 3.796 0 0 0-.006-.09l-.126.113c-2.59.46-2.353 1.754-4.094 2.274a6.127 6.127 0 0 0-.032-.027l.033-.096-.05.082c-3.193-2.612-7.828-1.124-7.52 1.53a5.707 5.707 0 0 0-.092-.126c-.035-.251-.065-.52-.09-.803-.03.335-.017.59.046.744-2.141-2.763-5.3-1.35-5.695-.622-.056.103-.1.107-.137.037l.045-.067-.177-1.191a24.283 24.283 0 0 1-.005-.24c.028-.292.058-.57.1-.855-.043.119-.078.23-.103.332 0-.88.029-1.707.029-1.707s-2.14.962-3.63 2.73c.032-1.18 0-3.102 0-3.723-1.777.36-3.494.382-5.333.342l.006-.007 10.301-1.84c-.834 1.878-1.125 2.91-1.27 3.873.37-1.005 1.37-2.58 2.528-4.098l3.406-.608c-.228 2.182-.291 4.897-.112 6.9.13-1.502 1.094-4.6 2.072-7.25l3.589-.641c.992 2.874 2.11 6.391 2.11 7.154.534-.293.152-4.08-.44-7.452l3.724-.665c2.256 2.362 4.512 4.913 4.994 5.681 0-.976-1.324-3.526-3.075-6.024l6.511-1.163c2.696 1.224 4.973 2.392 5.63 3.017 0-.458-1.607-1.79-3.811-3.342zm-9.457 7.85a8.17 8.17 0 0 1 .132-.022c.167 3.2-3.774 5.024-5.341 4.717zm-4.143 2.234l.017.014c-.191.534-1.177 3.147-2.51 4.091zm-13.62-.498c.015.595.052 1.105.132 1.258-.121.178-.467.674-.792 1.05a.872.872 0 0 1-.187 0l-.838-1.229c-.006-.481.188-.942.59-1.036.28.062 1.055-.31 1.055-.31zm-1.685 1.08c.006.569.291 1.168.838 1.228-.033.008-.966.231-1.271 1.023a1.097 1.097 0 0 1-.587-.183l.09-.064-.503-.978c.023-.692.383-1.37.535-1.1.527.496.868.03.868.03zm-1.433 1.026c-.013.404.089.812.413 1.042-2.528 1.758-1.786-1.18-.437-1.088zm-5.824-5.233l-.002.006h-.03zm-.003.01l.001-.004h.002l-.003.005zm14.957 5.046a.353.353 0 0 1-.048-.086l.044.059.004.027zm-6.021-2.12c-.065-.127-.061-.322 0-.572 0 .174.002.35.004.523l-.004.048zm-12.407-30.07c-2.605 2.063-3.861 1.583-3.861 1.583m8.39 23.698a.246.246 0 0 1-.008-.01l.037-.024-.049.005c-.096-.163-.117-.954-.105-1.911a27.465 27.465 0 0 0 1.983-1.355h-.001c.318-.24.648-.5.972-.773l.021.06-.02-.06c1.145-.97 2.213-2.114 2.37-3.109.481 1.031.922 1.634 1.158 1.625m-6.322-.491c.015-.156.03-.314.047-.473.177 0 .883-.441 1.644-1.089l.006-.001v-.004c.448-.382.915-.835 1.304-1.31.031.046.053.073.061.073l-.05-.088c.495-.607.862-1.251.9-1.832.172.666.362 1.288.557 1.854l-1.234 1.182-.639-.62c.018.018.292.408.559.697l-1.243 1.19-.432-.863s.136.532.315.975l-1.864 1.784c.027-.016.354-.107.831-.331a7.457 7.457 0 0 0 1.416-.872.122.122 0 0 0 .019.004l.383 1.091-1.013 1-.8-1.2s.276.937.613 1.384l-1.54 1.52c.023-1.763.16-4.071.16-4.071zm2.208-4.325c0 .017.253.5.484.917l-1.166 1.28-.356-1.172s.117.755.267 1.27l-1.386 1.521c.076-.73.167-1.49.272-2.26.33-.118.738-.42 1.152-.817l.005.007-.005-.007c.883-.845 1.793-2.114 2.042-2.917.114.613.246 1.203.39 1.761l-1.196 1.313zm-.733.74l-.255-.283.004-.004.25.286zm-1.14.735c.24-1.757.554-3.567.936-5.219.036.444.475.272.942-.087l-.225-.328-.708.379c.538-2.318 1.21-4.32 2.002-5.424-.335 2.425-.164 4.87.235 7.023l-1.15 1.32a30.473 30.473 0 0 0-.514-.844l.512.847-1.141 1.31c-.25-.282-.593-.668-.612-.668l.608.673zm2.03-2.333l.002-.002.2.334zm.346 1.754l.302.537-.012.014a9.45 9.45 0 0 1-.31-.53zm-1.185 1.301l.17.561a2.48 2.48 0 0 1-.005.005c-.086.01-.174-.196-.254-.469zm-1.687 6.2v.031l-.082.05zm2.073-4.493l.323.647-.057.046c-.13-.038-.266-.29-.383-.581zm2.56-2.44c.223.643.454 1.214.676 1.694l-2.566 2.532c-.16-.461-.35-1.005-.384-1.089.02.002.039 0 .058-.01l-.02-.04a7.15 7.15 0 0 0 2.237-3.087zm-2.274 3.137h-.001l-.003-.01a.15.15 0 0 1 .004.01zm1.038-1.964l.385.373c-.09.065-.277-.09-.466-.296zm-.443 3.663l-.213-.608.002-.002a452.565 452.565 0 0 1 .21.61zm-1.226.392l.254.38-.01.008c-.144.08-.292-.02-.43-.204zm-.287-10.472l-.009.036-.001-.03zm2.237 1.6l.002-.003-.002.005v-.003zm-3.183 3.655a62 62 0 0 0-.011.082c-.028.01-.056.019-.083.026zm3.573-1.892l.006-.006-.001.024-.005-.018zm-3.856 4.233l-.004.036a.062.062 0 0 1-.025-.004zm4.418-2.36l.01-.01-.006.018-.004-.009zm.68 1.702l.023-.024a1.684 1.684 0 0 1-.008.057l-.016-.033zm-5.205 7.18a.299.299 0 0 0 .012.02c-3.271 1.981-5.918.504-5.918.504zm-16.765-20.748l-.93-1.506.834-.289m9.359-5.865s.897 1.122.929 1.763c.032.641-.673 1.122-.673 1.122m-.897-1.506s-.193.673-.257 1.121c0 .32-1.025.737-1.025.737m11.89-2.98c-.545.384-2.211.609-2.211.609s-1.4-.37-2.443-.585c-1.053-.22-2.46.168-2.46.168m8.78-2.404c.033.032-.128.898-.608 1.41m4.966 2.114c-1.157.673-2.535.587-3.345.449.16.036.289.064.3.064.032 0-.417.865-.737 1.218.993.032 1.634.77 1.634.77s-1.121.736-1.442.993c1.218.192 1.57 1.154 1.57 1.154l-1.346.096.61 1.987-1.603-1.026-.93 1.635-.576-1.122-1.09 1.635-2.276-4.36m5.192-3.204l.694.16c-.425-.073-.694-.16-.694-.16zm2.468-.834s-1.795-.064-1.666-.769c.128-.8 1.89-1.378 1.89-1.378s.947-.61 1.727-1.185h.004l-.002-.001c.445-.33.836-.647.964-.833m-.966.834l-1.534.288s.576-.576 1.536-.29l-.002.002zm-6.493 13.063c-1.49.248-2.792-1.179-2.792-1.179m1.675 4.56c-2.481-.186-3.133-1.303-3.133-1.303m2.513 4.684c-2.265.31-3.947-1.747-3.947-1.747m3.42 5.128c-4.468-.093-4.933-1.613-4.933-1.613m4.684 5.552c-3.908.59-5.986-1.271-5.986-1.271m8.375 12.81c-4.777-1.272-1.73-6.063-1.699-6.063m3.344 6.84s.372.403.155 1.333c-.527.962-1.179-.093-1.24-.837 0 0-.497-.248-.466-1.272-.062-1.644 1.458-.465 1.458-.465m-1.458.961c-.197.557-.579 1.408-1.05 2.391l-1.121-4.003s-2.203.62-1.365 3.225c1.091.879 2.16.89 2.44.874-.237.497-.497 1.025-.766 1.564l-1.922-.39s1.339.586 1.9.434c-.478.961-.986 1.957-1.454 2.876l-1.578-.757s.652 1.144 1.568.778c-.62 1.214-1.168 2.29-1.49 2.965-1.428 1.551-1.707-.496-1.676-.496m3.176-2.49l.019.009-.03.012.011-.021zm1.476-2.92l.063.013a.45.45 0 0 1-.085.031l.022-.044zm.813-1.66l.025.09s-.025.004-.071.006l.046-.096zm7.44 2.317s-1.149-2.32-.218-3.436c.93-1.116.744-4.25.744-4.25m2.357-.154c.031.062.59 4.994-.651 6.39m5.397-7.383s1.82 3.522-.01 5.259m14.558 4.326c-9.058 0-4.157-8.375-4.157-8.375m-6.669 2.977c0-.03 5.02.014 5.36.945m.534 2.592c-.652 1.271-4.188 1.613-4.25 1.675m5.987-.28c.434.9-1.702 2.183-1.733 2.183m4.68-11.364c-2.389 2.202-5.18.837-5.18.837m9.15.404s-.62-1.024-2.295-.528c-1.272.124-2.327-1.767-2.327-1.767m24.604 13.291c-.744 1.21-1.84.29-1.84.29m2.12-3.498c-.62 1.302-1.975 1.058-1.975 1.058m1.55-3.757c-.465.962-1.93.597-1.93.597m.049-3.861s-1.113 2.178-1.516 2.396m-1.369-3.792s.063 2.326-.93 3.257m-2.202-3.815s-.031 1.923-1.613 3.256m-2.327-4.218c.652.838-1.86 3.598-1.892 3.63m-.837-4.747s-.332 2.658-3 3.061m-36.145-17.577s.844-.593 1.74-1.56c.008.005.018.008.028.009l-.007-.032c.275-.298.553-.63.814-.992m-1.086-.34s0 1.24.25 1.356l.022-.024zm-.775 11.29c0 .03.496.713.496.713m-1.365-.217s.03.993.527 1.055"/><path id="6yl8e" d="M1428.628 691.5l1.73.32s-1.218 1.635-1.73-.32z"/></defs><g><g transform="translate(-1394 -681)"><g><use fill="#00ab39" xlink:href="#6yl8a"/></g><g><use fill="#fff" xlink:href="#6yl8b"/></g><g><g><use fill="#d21034" xlink:href="#6yl8c"/><use fill="#fff" fill-opacity="0" stroke="#000" stroke-miterlimit="50" stroke-width="1.8" xlink:href="#6yl8c"/></g><g><use fill="#fff" fill-opacity="0" stroke="#000" stroke-linejoin="round" stroke-miterlimit="50" stroke-width="1.8" xlink:href="#6yl8d"/></g><g><use xlink:href="#6yl8e"/><use fill="#fff" fill-opacity="0" stroke="#000" stroke-linejoin="round" stroke-miterlimit="50" stroke-width="1.8" xlink:href="#6yl8e"/></g></g></g></g></svg>